<mxfile host="app.diagrams.net" modified="2021-08-29T13:41:20.741Z" agent="5.0 (Windows NT 10.0; Win64; x64) AppleWebKit/537.36 (KHTML, like Gecko) Chrome/92.0.4515.131 Safari/537.36 OPR/78.0.4093.186" etag="6TcBP6IjLO4cz7CMRryz" version="15.0.3" type="github">
  <diagram id="IoZOqBR_R0r33BYb56o1" name="Page-1">
    <mxGraphModel dx="1847" dy="548" grid="1" gridSize="10" guides="1" tooltips="1" connect="1" arrows="1" fold="1" page="1" pageScale="1" pageWidth="850" pageHeight="1100" math="0" shadow="0">
      <root>
        <mxCell id="0" />
        <mxCell id="1" parent="0" />
        <mxCell id="L9IArEppP5P3WrQvEWHb-1" value="viewTT" style="text;html=1;align=center;verticalAlign=middle;resizable=0;points=[];autosize=1;strokeColor=none;" vertex="1" parent="1">
          <mxGeometry x="-800" y="20" width="50" height="20" as="geometry" />
        </mxCell>
        <mxCell id="L9IArEppP5P3WrQvEWHb-27" style="edgeStyle=orthogonalEdgeStyle;rounded=0;orthogonalLoop=1;jettySize=auto;html=1;endArrow=none;endFill=0;dashed=1;" edge="1" parent="1" source="L9IArEppP5P3WrQvEWHb-38">
          <mxGeometry relative="1" as="geometry">
            <mxPoint x="-740" y="380" as="targetPoint" />
            <mxPoint x="-740.5" y="-120.5" as="sourcePoint" />
            <Array as="points" />
          </mxGeometry>
        </mxCell>
        <mxCell id="L9IArEppP5P3WrQvEWHb-28" value="" style="shape=umlActor;verticalLabelPosition=bottom;verticalAlign=top;html=1;outlineConnect=0;" vertex="1" parent="1">
          <mxGeometry x="-750" y="70" width="20" height="40" as="geometry" />
        </mxCell>
        <mxCell id="L9IArEppP5P3WrQvEWHb-29" style="edgeStyle=orthogonalEdgeStyle;rounded=0;orthogonalLoop=1;jettySize=auto;html=1;endArrow=none;endFill=0;dashed=1;startArrow=none;" edge="1" parent="1" source="L9IArEppP5P3WrQvEWHb-49">
          <mxGeometry relative="1" as="geometry">
            <mxPoint x="-590" y="380" as="targetPoint" />
            <Array as="points">
              <mxPoint x="-590" y="330" />
              <mxPoint x="-590" y="330" />
            </Array>
          </mxGeometry>
        </mxCell>
        <mxCell id="L9IArEppP5P3WrQvEWHb-30" value=":Home Page" style="rounded=0;whiteSpace=wrap;html=1;" vertex="1" parent="1">
          <mxGeometry x="-640" y="70" width="100" height="40" as="geometry" />
        </mxCell>
        <mxCell id="L9IArEppP5P3WrQvEWHb-31" style="edgeStyle=orthogonalEdgeStyle;rounded=0;orthogonalLoop=1;jettySize=auto;html=1;endArrow=none;endFill=0;dashed=1;" edge="1" parent="1" source="L9IArEppP5P3WrQvEWHb-32">
          <mxGeometry relative="1" as="geometry">
            <mxPoint x="-440" y="380" as="targetPoint" />
          </mxGeometry>
        </mxCell>
        <mxCell id="L9IArEppP5P3WrQvEWHb-32" value=": Timetable" style="rounded=0;whiteSpace=wrap;html=1;" vertex="1" parent="1">
          <mxGeometry x="-490" y="70" width="100" height="40" as="geometry" />
        </mxCell>
        <mxCell id="L9IArEppP5P3WrQvEWHb-33" value="" style="endArrow=classic;html=1;" edge="1" parent="1">
          <mxGeometry width="50" height="50" relative="1" as="geometry">
            <mxPoint x="-740" y="160" as="sourcePoint" />
            <mxPoint x="-597" y="160" as="targetPoint" />
          </mxGeometry>
        </mxCell>
        <mxCell id="L9IArEppP5P3WrQvEWHb-34" value="clicks Timetable" style="text;html=1;align=center;verticalAlign=middle;resizable=0;points=[];autosize=1;strokeColor=none;" vertex="1" parent="1">
          <mxGeometry x="-715" y="140" width="100" height="20" as="geometry" />
        </mxCell>
        <mxCell id="L9IArEppP5P3WrQvEWHb-35" value="" style="html=1;points=[];perimeter=orthogonalPerimeter;fillColor=#ffffff;" vertex="1" parent="1">
          <mxGeometry x="-745" y="140" width="10" height="160" as="geometry" />
        </mxCell>
        <mxCell id="L9IArEppP5P3WrQvEWHb-36" value="" style="html=1;points=[];perimeter=orthogonalPerimeter;fillColor=#ffffff;" vertex="1" parent="1">
          <mxGeometry x="-595" y="150" width="10" height="70" as="geometry" />
        </mxCell>
        <mxCell id="L9IArEppP5P3WrQvEWHb-37" value="" style="html=1;points=[];perimeter=orthogonalPerimeter;fillColor=#ffffff;" vertex="1" parent="1">
          <mxGeometry x="-445" y="160" width="10" height="120" as="geometry" />
        </mxCell>
        <mxCell id="L9IArEppP5P3WrQvEWHb-38" value="User" style="text;html=1;align=center;verticalAlign=middle;resizable=0;points=[];autosize=1;strokeColor=none;" vertex="1" parent="1">
          <mxGeometry x="-760" y="110" width="40" height="20" as="geometry" />
        </mxCell>
        <mxCell id="L9IArEppP5P3WrQvEWHb-39" style="edgeStyle=orthogonalEdgeStyle;rounded=0;orthogonalLoop=1;jettySize=auto;html=1;endArrow=none;endFill=0;dashed=1;" edge="1" parent="1" source="L9IArEppP5P3WrQvEWHb-40">
          <mxGeometry relative="1" as="geometry">
            <mxPoint x="-290" y="380" as="targetPoint" />
            <Array as="points">
              <mxPoint x="-290" y="380" />
              <mxPoint x="-290" y="380" />
            </Array>
          </mxGeometry>
        </mxCell>
        <mxCell id="L9IArEppP5P3WrQvEWHb-40" value=": Database" style="rounded=0;whiteSpace=wrap;html=1;" vertex="1" parent="1">
          <mxGeometry x="-340" y="70" width="100" height="40" as="geometry" />
        </mxCell>
        <mxCell id="L9IArEppP5P3WrQvEWHb-41" value="" style="endArrow=classic;html=1;" edge="1" parent="1">
          <mxGeometry width="50" height="50" relative="1" as="geometry">
            <mxPoint x="-585" y="180" as="sourcePoint" />
            <mxPoint x="-444" y="180" as="targetPoint" />
          </mxGeometry>
        </mxCell>
        <mxCell id="L9IArEppP5P3WrQvEWHb-42" value="" style="endArrow=none;html=1;entryX=-0.02;entryY=0.222;entryDx=0;entryDy=0;entryPerimeter=0;endFill=0;startArrow=classic;startFill=1;dashed=1;exitX=1.02;exitY=0.75;exitDx=0;exitDy=0;exitPerimeter=0;" edge="1" parent="1" source="L9IArEppP5P3WrQvEWHb-35">
          <mxGeometry width="50" height="50" relative="1" as="geometry">
            <mxPoint x="-584.8" y="260.02" as="sourcePoint" />
            <mxPoint x="-445" y="260" as="targetPoint" />
          </mxGeometry>
        </mxCell>
        <mxCell id="L9IArEppP5P3WrQvEWHb-43" value="send request" style="text;html=1;align=center;verticalAlign=middle;resizable=0;points=[];autosize=1;strokeColor=none;" vertex="1" parent="1">
          <mxGeometry x="-565" y="160" width="90" height="20" as="geometry" />
        </mxCell>
        <mxCell id="L9IArEppP5P3WrQvEWHb-44" value="" style="html=1;points=[];perimeter=orthogonalPerimeter;fillColor=#ffffff;" vertex="1" parent="1">
          <mxGeometry x="-295" y="170" width="10" height="70" as="geometry" />
        </mxCell>
        <mxCell id="L9IArEppP5P3WrQvEWHb-45" value="" style="endArrow=classic;html=1;entryX=-0.02;entryY=0.222;entryDx=0;entryDy=0;entryPerimeter=0;" edge="1" parent="1">
          <mxGeometry width="50" height="50" relative="1" as="geometry">
            <mxPoint x="-435" y="190" as="sourcePoint" />
            <mxPoint x="-295.20000000000005" y="189.98000000000002" as="targetPoint" />
          </mxGeometry>
        </mxCell>
        <mxCell id="L9IArEppP5P3WrQvEWHb-46" value="" style="endArrow=none;html=1;entryX=-0.02;entryY=0.222;entryDx=0;entryDy=0;entryPerimeter=0;startArrow=classic;startFill=1;endFill=0;dashed=1;" edge="1" parent="1">
          <mxGeometry width="50" height="50" relative="1" as="geometry">
            <mxPoint x="-435" y="230.01999999999998" as="sourcePoint" />
            <mxPoint x="-295.20000000000005" y="230" as="targetPoint" />
          </mxGeometry>
        </mxCell>
        <mxCell id="L9IArEppP5P3WrQvEWHb-47" value="search data" style="text;html=1;align=center;verticalAlign=middle;resizable=0;points=[];autosize=1;strokeColor=none;" vertex="1" parent="1">
          <mxGeometry x="-410" y="170" width="80" height="20" as="geometry" />
        </mxCell>
        <mxCell id="L9IArEppP5P3WrQvEWHb-48" value="get data" style="text;html=1;align=center;verticalAlign=middle;resizable=0;points=[];autosize=1;strokeColor=none;" vertex="1" parent="1">
          <mxGeometry x="-390" y="210" width="60" height="20" as="geometry" />
        </mxCell>
        <mxCell id="L9IArEppP5P3WrQvEWHb-49" value="display Timetable" style="text;html=1;align=center;verticalAlign=middle;resizable=0;points=[];autosize=1;" vertex="1" parent="1">
          <mxGeometry x="-640" y="240" width="110" height="20" as="geometry" />
        </mxCell>
        <mxCell id="L9IArEppP5P3WrQvEWHb-50" value="" style="edgeStyle=orthogonalEdgeStyle;rounded=0;orthogonalLoop=1;jettySize=auto;html=1;endArrow=none;endFill=0;dashed=1;" edge="1" parent="1" source="L9IArEppP5P3WrQvEWHb-30" target="L9IArEppP5P3WrQvEWHb-49">
          <mxGeometry relative="1" as="geometry">
            <mxPoint x="-590" y="540" as="targetPoint" />
            <mxPoint x="-590" y="110" as="sourcePoint" />
            <Array as="points">
              <mxPoint x="-590" y="230" />
              <mxPoint x="-590" y="230" />
            </Array>
          </mxGeometry>
        </mxCell>
      </root>
    </mxGraphModel>
  </diagram>
</mxfile>
